<svg width="100" height="100" viewBox="0 0 100 100" fill="none" xmlns="http://www.w3.org/2000/svg">
<g clip-path="url(#clip0_47_2)">
<rect width="100" height="100" rx="4" fill="#D9D9D9"/>
<path d="M17.704 96.152C12.392 96.152 8.456 95.128 5.896 93.08C3.4 91.032 2.152 88.408 2.152 85.208C2.152 83.224 2.792 81.496 4.072 80.024C5.352 78.488 7.208 77.72 9.64 77.72C11.688 77.72 13.352 78.328 14.632 79.544C15.976 80.76 16.648 82.296 16.648 84.152C16.648 85.432 16.424 86.52 15.976 87.416C15.528 88.312 14.952 88.952 14.248 89.336V89.816C14.76 89.944 15.272 90.04 15.784 90.104C16.36 90.168 16.904 90.2 17.416 90.2C19.784 90.2 21.576 89.464 22.792 87.992C24.008 86.52 24.616 83.992 24.616 80.408V34.328H15.496V27.992H46.888V34.328H40.168V75.32C40.168 78.392 39.752 81.208 38.92 83.768C38.152 86.328 36.872 88.536 35.08 90.392C33.288 92.184 30.952 93.592 28.072 94.616C25.256 95.64 21.8 96.152 17.704 96.152ZM53.8645 88.664H59.6245V54.392L53.8645 53.144V47.672L73.9285 43.544V53.048H74.3125C75.2085 50.36 76.6485 48.12 78.6325 46.328C80.6165 44.472 83.2085 43.544 86.4085 43.544C89.5445 43.544 92.0085 44.408 93.8005 46.136C95.5925 47.8 96.4885 50.104 96.4885 53.048C96.4885 55.608 95.8165 57.624 94.4725 59.096C93.1285 60.568 91.2405 61.304 88.8085 61.304C86.5045 61.304 84.7445 60.696 83.5285 59.48C82.3125 58.2 81.7045 56.696 81.7045 54.968C81.7045 54.2 81.8645 53.496 82.1845 52.856C82.5045 52.216 82.8885 51.8 83.3365 51.608L83.2405 51.128C83.0485 51.064 82.7605 51.032 82.3765 51.032C81.3525 51.032 80.3605 51.32 79.4005 51.896C78.4405 52.472 77.5765 53.208 76.8085 54.104C76.0405 55 75.4005 55.992 74.8885 57.08C74.4405 58.168 74.2165 59.224 74.2165 60.248V88.664H81.8965V95H53.8645V88.664Z" fill="black"/>
</g>
<defs>
<clipPath id="clip0_47_2">
<rect width="100" height="100" fill="white"/>
</clipPath>
</defs>
</svg>
