<svg width="100" height="100" viewBox="0 0 100 100" fill="none" xmlns="http://www.w3.org/2000/svg">
<g clip-path="url(#clip0_47_2)">
<rect width="100" height="100" rx="4" fill="#D9D9D9"/>
<path d="M28.136 83.768C24.5947 83.768 21.9707 83.0853 20.264 81.72C18.6 80.3547 17.768 78.6053 17.768 76.472C17.768 75.1493 18.1947 73.9973 19.048 73.016C19.9013 71.992 21.1387 71.48 22.76 71.48C24.1253 71.48 25.2347 71.8853 26.088 72.696C26.984 73.5067 27.432 74.5307 27.432 75.768C27.432 76.6213 27.2827 77.3467 26.984 77.944C26.6853 78.5413 26.3013 78.968 25.832 79.224V79.544C26.1733 79.6293 26.5147 79.6933 26.856 79.736C27.24 79.7787 27.6027 79.8 27.944 79.8C29.5227 79.8 30.7173 79.3093 31.528 78.328C32.3387 77.3467 32.744 75.6613 32.744 73.272V42.552H26.664V38.328H47.592V42.552H43.112V69.88C43.112 71.928 42.8347 73.8053 42.28 75.512C41.768 77.2187 40.9147 78.6907 39.72 79.928C38.5253 81.1227 36.968 82.0613 35.048 82.744C33.1707 83.4267 30.8667 83.768 28.136 83.768ZM52.243 78.776H56.083V55.928L52.243 55.096V51.448L65.619 48.696V55.032H65.875C66.4723 53.24 67.4323 51.7467 68.755 50.552C70.0777 49.3147 71.8057 48.696 73.939 48.696C76.0297 48.696 77.6723 49.272 78.867 50.424C80.0617 51.5333 80.659 53.0693 80.659 55.032C80.659 56.7387 80.211 58.0827 79.315 59.064C78.419 60.0453 77.1603 60.536 75.539 60.536C74.003 60.536 72.8297 60.1307 72.019 59.32C71.2083 58.4667 70.803 57.464 70.803 56.312C70.803 55.8 70.9097 55.3307 71.123 54.904C71.3363 54.4773 71.5923 54.2 71.891 54.072L71.827 53.752C71.699 53.7093 71.507 53.688 71.251 53.688C70.5683 53.688 69.907 53.88 69.267 54.264C68.627 54.648 68.051 55.1387 67.539 55.736C67.027 56.3333 66.6003 56.9947 66.259 57.72C65.9603 58.4453 65.811 59.1493 65.811 59.832V78.776H70.931V83H52.243V78.776Z" fill="black"/>
</g>
<defs>
<clipPath id="clip0_47_2">
<rect width="100" height="100" fill="white"/>
</clipPath>
</defs>
</svg>
